<svg id="Layer_1" data-name="Layer 1" xmlns="http://www.w3.org/2000/svg" viewBox="0 0 100 100"><defs><style>.cls-1{fill:#231f20;}</style></defs><path class="cls-1" d="M15,54.063a5.716,5.716,0,0,0-3.008.829,4.217,4.217,0,0,0-1.8,2.159,3.464,3.464,0,0,0,.137,2.619,4.417,4.417,0,0,0,2.017,2.023l13.426,11.1a5.146,5.146,0,0,0,1.622.9,5.966,5.966,0,0,0,3.823,0,5.172,5.172,0,0,0,1.621-.895,4.194,4.194,0,0,0,1.082-1.341,3.471,3.471,0,0,0,0-3.16,4.183,4.183,0,0,0-1.084-1.34l-5.6-4.624H64.95a5.573,5.573,0,0,0,3.532-1.209,3.646,3.646,0,0,0,0-5.84,5.573,5.573,0,0,0-3.532-1.209H15Z"/><path class="cls-1" d="M85,45.937a5.716,5.716,0,0,0,3.008-.829,4.217,4.217,0,0,0,1.8-2.159,3.46,3.46,0,0,0-.137-2.619,4.417,4.417,0,0,0-2.017-2.023l-13.426-11.1a5.765,5.765,0,0,0-7.066,0,3.645,3.645,0,0,0,0,5.84l5.6,4.624H35.05a5.566,5.566,0,0,0-3.532,1.21,3.645,3.645,0,0,0,0,5.839,5.571,5.571,0,0,0,3.532,1.209H85Z"/></svg>