<svg id="Layer_1" data-name="Layer 1" xmlns="http://www.w3.org/2000/svg" viewBox="0 0 100 100"><defs><style>.cls-1{fill-rule:evenodd;}</style></defs><path class="cls-1" d="M50,15.863A35,35,0,0,0,38.931,84.07c1.75.306,2.407-.744,2.407-1.663,0-.831-.044-3.587-.044-6.519-8.794,1.619-11.069-2.143-11.769-4.112-.394-1.006-2.1-4.113-3.587-4.944-1.225-.656-2.975-2.275-.044-2.319,2.756-.043,4.725,2.538,5.381,3.588,3.15,5.294,8.181,3.806,10.194,2.887A7.362,7.362,0,0,1,43.7,66.307c-7.788-.875-15.925-3.894-15.925-17.281a13.618,13.618,0,0,1,3.588-9.406,12.566,12.566,0,0,1,.35-9.275s2.931-.919,9.625,3.587a33,33,0,0,1,17.5,0c6.694-4.55,9.625-3.587,9.625-3.587a12.572,12.572,0,0,1,.35,9.275A13.538,13.538,0,0,1,72.4,49.026c0,13.431-8.181,16.406-15.969,17.281C57.7,67.4,58.794,69.5,58.794,72.782c0,4.681-.044,8.444-.044,9.625,0,.919.656,2.013,2.406,1.663A35.019,35.019,0,0,0,50,15.863Z"/></svg>