<svg width="32" height="32" viewBox="0 0 32 32" fill="none" xmlns="http://www.w3.org/2000/svg">
<path fill-rule="evenodd" clip-rule="evenodd" d="M11.4602 6.45412C12.5825 5.98926 13.7854 5.75 15.0001 5.75C16.2149 5.75 17.4177 5.98926 18.54 6.45412C19.6623 6.91898 20.682 7.60034 21.5409 8.4593C22.3999 9.31825 23.0812 10.338 23.5461 11.4602C24.011 12.5825 24.2502 13.7854 24.2502 15.0001C24.2502 16.2149 24.011 17.4177 23.5461 18.54C23.2416 19.2751 22.8442 19.9663 22.3648 20.5971L25.8839 24.1161C26.372 24.6043 26.372 25.3957 25.8839 25.8839C25.3957 26.372 24.6043 26.372 24.1161 25.8839L20.5971 22.3648C18.9967 23.5811 17.0329 24.2502 15.0001 24.2502C12.5468 24.2502 10.194 23.2757 8.4593 21.5409C6.72456 19.8062 5.75 17.4534 5.75 15.0001C5.75 12.5468 6.72456 10.194 8.4593 8.4593C9.31825 7.60034 10.338 6.91898 11.4602 6.45412ZM15.0001 8.25C14.1137 8.25 13.2359 8.4246 12.417 8.76382C11.598 9.10305 10.8539 9.60026 10.2271 10.2271C8.96117 11.493 8.25 13.2099 8.25 15.0001C8.25 16.7904 8.96117 18.5073 10.2271 19.7732C11.493 21.0391 13.2099 21.7502 15.0001 21.7502C16.7904 21.7502 18.5073 21.0391 19.7732 19.7732C20.4 19.1464 20.8972 18.4022 21.2364 17.5833C21.5756 16.7643 21.7502 15.8866 21.7502 15.0001C21.7502 14.1137 21.5756 13.2359 21.2364 12.417C20.8972 11.598 20.4 10.8539 19.7732 10.2271C19.1464 9.60026 18.4022 9.10305 17.5833 8.76382C16.7643 8.4246 15.8866 8.25 15.0001 8.25Z" fill="black"/>
</svg>
