<svg id="Layer_1" data-name="Layer 1" xmlns="http://www.w3.org/2000/svg" viewBox="0 0 100 100"><defs><style>.cls-1{fill:#231f20;}</style></defs><path class="cls-1" d="M49.181,89.2A39.2,39.2,0,1,1,88.381,50,39.244,39.244,0,0,1,49.181,89.2Zm0-70A30.8,30.8,0,1,0,79.981,50,30.834,30.834,0,0,0,49.181,19.2Z"/><path class="cls-1" d="M59.681,68.2a4.187,4.187,0,0,1-2.97-1.23l-8.449-8.449a11.132,11.132,0,0,1-3.281-7.916V29a4.2,4.2,0,0,1,8.4,0V50.6a2.785,2.785,0,0,0,.82,1.979l8.45,8.448a4.2,4.2,0,0,1-2.97,7.17Z"/></svg>