<svg width="32" height="32" viewBox="0 0 32 32" fill="none" xmlns="http://www.w3.org/2000/svg">
<path fill-rule="evenodd" clip-rule="evenodd" d="M11.8 21.1544C11.7971 20.9399 11.8587 20.7302 11.9757 20.5564C12.0237 20.4825 12.087 20.4217 12.1607 20.3787C12.2343 20.3358 12.3163 20.3118 12.4001 20.3087H24.3999C24.4837 20.3118 24.5657 20.3358 24.6393 20.3787C24.713 20.4217 24.7763 20.4825 24.8243 20.5564C24.9386 20.7316 25 20.9404 25 21.1544C25 21.3683 24.9386 21.5771 24.8243 21.7523C24.7764 21.8262 24.7131 21.8871 24.6394 21.9301C24.5657 21.9731 24.4837 21.997 24.3999 22H12.4001C12.3163 21.997 12.2343 21.9731 12.1606 21.9301C12.0869 21.8871 12.0236 21.8262 11.9757 21.7523C11.8587 21.5786 11.797 21.3688 11.8 21.1544ZM9.40016 16C9.39725 15.7856 9.45888 15.5758 9.57589 15.402C9.62384 15.3282 9.68713 15.2674 9.76074 15.2244C9.83435 15.1815 9.91627 15.1575 10 15.1544H22.0001C22.0838 15.1575 22.1657 15.1815 22.2394 15.2244C22.313 15.2674 22.3763 15.3282 22.4242 15.402C22.5386 15.5772 22.5999 15.786 22.5999 16C22.5999 16.214 22.5386 16.4228 22.4242 16.598C22.3763 16.6718 22.313 16.7326 22.2394 16.7756C22.1657 16.8185 22.0838 16.8425 22.0001 16.8456H10C9.91627 16.8425 9.83435 16.8185 9.76074 16.7756C9.68713 16.7326 9.62384 16.6718 9.57589 16.598C9.45888 16.4242 9.39725 16.2145 9.40016 16ZM7.0001 10.8456C6.99712 10.6312 7.05876 10.4214 7.17583 10.2477C7.22372 10.1737 7.28702 10.1129 7.36069 10.0699C7.43436 10.0269 7.51637 10.0029 7.60017 10H19.6C19.6838 10.003 19.7658 10.0269 19.8394 10.0699C19.913 10.1129 19.9763 10.1738 20.0241 10.2477C20.1386 10.4228 20.2001 10.6316 20.2001 10.8456C20.2001 11.0597 20.1386 11.2685 20.0241 11.4436C19.9762 11.5174 19.9129 11.5782 19.8393 11.6212C19.7657 11.6642 19.6838 11.6882 19.6 11.6913H7.60017C7.5164 11.6882 7.43443 11.6642 7.36078 11.6213C7.28713 11.5783 7.2238 11.5175 7.17583 11.4436C7.05882 11.2698 6.99719 11.0601 7.0001 10.8456Z" fill="#231F20"/>
</svg>
