<svg width="32" height="32" viewBox="0 0 32 32" fill="none" xmlns="http://www.w3.org/2000/svg">
<path d="M26.6829 12.9041L22.2821 8.33587C22.1796 8.22938 22.0578 8.14492 21.9237 8.08729C21.7897 8.02966 21.6461 8 21.501 8C21.208 8 20.927 8.12082 20.7199 8.33587C20.5127 8.55092 20.3963 8.84259 20.3963 9.14672C20.3963 9.45085 20.5127 9.74253 20.7199 9.95758L23.2503 12.5729H10.499C10.2072 12.5729 9.92737 12.6932 9.72104 12.9074C9.51472 13.1215 9.3988 13.412 9.3988 13.7149C9.3988 14.0178 9.51472 14.3083 9.72104 14.5225C9.92737 14.7367 10.2072 14.857 10.499 14.857H25.9018C26.119 14.8558 26.331 14.788 26.5112 14.662C26.6913 14.536 26.8314 14.3575 26.914 14.1489C26.9982 13.9409 27.0213 13.7117 26.9801 13.4902C26.939 13.2686 26.8356 13.0647 26.6829 12.9041ZM21.501 17.1411H6.0982C5.881 17.1422 5.66897 17.21 5.48885 17.336C5.30872 17.4621 5.16856 17.6406 5.08602 17.8491C5.00177 18.0571 4.97875 18.2864 5.01987 18.5079C5.06099 18.7294 5.1644 18.9334 5.31706 19.094L9.71786 23.6622C9.82014 23.7692 9.94182 23.8542 10.0759 23.9122C10.21 23.9701 10.3538 24 10.499 24C10.6442 24 10.788 23.9701 10.9221 23.9122C11.0562 23.8542 11.1779 23.7692 11.2801 23.6622C11.3833 23.556 11.4651 23.4297 11.521 23.2905C11.5768 23.1514 11.6056 23.0021 11.6056 22.8513C11.6056 22.7006 11.5768 22.5513 11.521 22.4121C11.4651 22.273 11.3833 22.1466 11.2801 22.0405L8.74969 19.4252H21.501C21.7928 19.4252 22.0726 19.3049 22.279 19.0907C22.4853 18.8765 22.6012 18.586 22.6012 18.2831C22.6012 17.9802 22.4853 17.6898 22.279 17.4756C22.0726 17.2614 21.7928 17.1411 21.501 17.1411Z" fill="black"/>
</svg>
