<svg id="Layer_1" data-name="Layer 1" xmlns="http://www.w3.org/2000/svg" viewBox="0 0 100 100"><defs><style>.cls-1{fill:#231f20;fill-rule:evenodd;}</style></defs><path class="cls-1" d="M31.333,71.333a4.122,4.122,0,0,1,.781-2.475A2.4,2.4,0,0,1,34,67.833H87.333a2.4,2.4,0,0,1,1.886,1.025,4.312,4.312,0,0,1,0,4.95,2.394,2.394,0,0,1-1.886,1.025H34a2.394,2.394,0,0,1-1.886-1.025A4.118,4.118,0,0,1,31.333,71.333ZM20.667,50a4.122,4.122,0,0,1,.781-2.475A2.4,2.4,0,0,1,23.333,46.5H76.667a2.4,2.4,0,0,1,1.885,1.025,4.312,4.312,0,0,1,0,4.95A2.4,2.4,0,0,1,76.667,53.5H23.333a2.4,2.4,0,0,1-1.885-1.025A4.122,4.122,0,0,1,20.667,50ZM10,28.667a4.118,4.118,0,0,1,.781-2.475,2.393,2.393,0,0,1,1.886-1.025H66a2.392,2.392,0,0,1,1.885,1.025,4.308,4.308,0,0,1,0,4.95A2.4,2.4,0,0,1,66,32.167H12.667a2.4,2.4,0,0,1-1.886-1.025A4.122,4.122,0,0,1,10,28.667Z"/></svg>